<svg viewBox="0 0 1805 600" fill="none" xmlns="http://www.w3.org/2000/svg">
<g clip-path="url(#clip0_945_22379)">
<path d="M0 0H1804.8V552C1804.8 578.51 1783.31 600 1756.8 600H47.9999C21.4903 600 0 578.51 0 552V0Z" fill="#3E00FA"/>
<g filter="url(#filter0_f_945_22379)">
<ellipse cx="901.9" cy="-1182" rx="1782.5" ry="1782" fill="white"/>
</g>
<g opacity="0.24" clip-path="url(#clip1_945_22379)">
<circle cx="18" cy="40" r="2" fill="#F1F5F9"/>
<circle cx="70" cy="40" r="2" fill="#F1F5F9"/>
<circle cx="122" cy="40" r="2" fill="#F1F5F9"/>
<circle cx="174" cy="40" r="2" fill="#F1F5F9"/>
<circle cx="226" cy="40" r="2" fill="#F1F5F9"/>
<circle cx="278" cy="40" r="2" fill="#F1F5F9"/>
<circle cx="330" cy="40" r="2" fill="#F1F5F9"/>
<circle cx="382" cy="40" r="2" fill="#F1F5F9"/>
<circle cx="434" cy="40" r="2" fill="#F1F5F9"/>
<circle cx="486" cy="40" r="2" fill="#F1F5F9"/>
<circle cx="538" cy="40" r="2" fill="#F1F5F9"/>
<circle cx="590" cy="40" r="2" fill="#F1F5F9"/>
<circle cx="642" cy="40" r="2" fill="#F1F5F9"/>
<circle cx="694" cy="40" r="2" fill="#F1F5F9"/>
<circle cx="746" cy="40" r="2" fill="#F1F5F9"/>
<circle cx="798" cy="40" r="2" fill="#F1F5F9"/>
<circle cx="850" cy="40" r="2" fill="#F1F5F9"/>
<circle cx="902" cy="40" r="2" fill="#F1F5F9"/>
<circle cx="954" cy="40" r="2" fill="#F1F5F9"/>
<circle cx="1006" cy="40" r="2" fill="#F1F5F9"/>
<circle cx="1058" cy="40" r="2" fill="#F1F5F9"/>
<circle cx="1110" cy="40" r="2" fill="#F1F5F9"/>
<circle cx="1162" cy="40" r="2" fill="#F1F5F9"/>
<circle cx="1214" cy="40" r="2" fill="#F1F5F9"/>
<circle cx="1266" cy="40" r="2" fill="#F1F5F9"/>
<circle cx="1318" cy="40" r="2" fill="#F1F5F9"/>
<circle cx="1370" cy="40" r="2" fill="#F1F5F9"/>
<circle cx="1422" cy="40" r="2" fill="#F1F5F9"/>
<circle cx="1474" cy="40" r="2" fill="#F1F5F9"/>
<circle cx="1526" cy="40" r="2" fill="#F1F5F9"/>
<circle cx="1578" cy="40" r="2" fill="#F1F5F9"/>
<circle cx="1630" cy="40" r="2" fill="#F1F5F9"/>
<circle cx="1682" cy="40" r="2" fill="#F1F5F9"/>
<circle cx="1734" cy="40" r="2" fill="#F1F5F9"/>
<circle cx="1786" cy="40" r="2" fill="#F1F5F9"/>
<circle cx="18" cy="92" r="2" fill="#F1F5F9"/>
<circle cx="70" cy="92" r="2" fill="#F1F5F9"/>
<circle cx="122" cy="92" r="2" fill="#F1F5F9"/>
<circle cx="174" cy="92" r="2" fill="#F1F5F9"/>
<circle cx="226" cy="92" r="2" fill="#F1F5F9"/>
<circle cx="278" cy="92" r="2" fill="#F1F5F9"/>
<circle cx="330" cy="92" r="2" fill="#F1F5F9"/>
<circle cx="382" cy="92" r="2" fill="#F1F5F9"/>
<circle cx="434" cy="92" r="2" fill="#F1F5F9"/>
<circle cx="486" cy="92" r="2" fill="#F1F5F9"/>
<circle cx="538" cy="92" r="2" fill="#F1F5F9"/>
<circle cx="590" cy="92" r="2" fill="#F1F5F9"/>
<circle cx="642" cy="92" r="2" fill="#F1F5F9"/>
<circle cx="694" cy="92" r="2" fill="#F1F5F9"/>
<circle cx="746" cy="92" r="2" fill="#F1F5F9"/>
<circle cx="798" cy="92" r="2" fill="#F1F5F9"/>
<circle cx="850" cy="92" r="2" fill="#F1F5F9"/>
<circle cx="902" cy="92" r="2" fill="#F1F5F9"/>
<circle cx="954" cy="92" r="2" fill="#F1F5F9"/>
<circle cx="1006" cy="92" r="2" fill="#F1F5F9"/>
<circle cx="1058" cy="92" r="2" fill="#F1F5F9"/>
<circle cx="1110" cy="92" r="2" fill="#F1F5F9"/>
<circle cx="1162" cy="92" r="2" fill="#F1F5F9"/>
<circle cx="1214" cy="92" r="2" fill="#F1F5F9"/>
<circle cx="1266" cy="92" r="2" fill="#F1F5F9"/>
<circle cx="1318" cy="92" r="2" fill="#F1F5F9"/>
<circle cx="1370" cy="92" r="2" fill="#F1F5F9"/>
<circle cx="1422" cy="92" r="2" fill="#F1F5F9"/>
<circle cx="1474" cy="92" r="2" fill="#F1F5F9"/>
<circle cx="1526" cy="92" r="2" fill="#F1F5F9"/>
<circle cx="1578" cy="92" r="2" fill="#F1F5F9"/>
<circle cx="1630" cy="92" r="2" fill="#F1F5F9"/>
<circle cx="1682" cy="92" r="2" fill="#F1F5F9"/>
<circle cx="1734" cy="92" r="2" fill="#F1F5F9"/>
<circle cx="1786" cy="92" r="2" fill="#F1F5F9"/>
<circle cx="18" cy="144" r="2" fill="#F1F5F9"/>
<circle cx="70" cy="144" r="2" fill="#F1F5F9"/>
<circle cx="122" cy="144" r="2" fill="#F1F5F9"/>
<circle cx="174" cy="144" r="2" fill="#F1F5F9"/>
<circle cx="226" cy="144" r="2" fill="#F1F5F9"/>
<circle cx="278" cy="144" r="2" fill="#F1F5F9"/>
<circle cx="330" cy="144" r="2" fill="#F1F5F9"/>
<circle cx="382" cy="144" r="2" fill="#F1F5F9"/>
<circle cx="434" cy="144" r="2" fill="#F1F5F9"/>
<circle cx="486" cy="144" r="2" fill="#F1F5F9"/>
<circle cx="538" cy="144" r="2" fill="#F1F5F9"/>
<circle cx="590" cy="144" r="2" fill="#F1F5F9"/>
<circle cx="642" cy="144" r="2" fill="#F1F5F9"/>
<circle cx="694" cy="144" r="2" fill="#F1F5F9"/>
<circle cx="746" cy="144" r="2" fill="#F1F5F9"/>
<circle cx="798" cy="144" r="2" fill="#F1F5F9"/>
<circle cx="850" cy="144" r="2" fill="#F1F5F9"/>
<circle cx="902" cy="144" r="2" fill="#F1F5F9"/>
<circle cx="954" cy="144" r="2" fill="#F1F5F9"/>
<circle cx="1006" cy="144" r="2" fill="#F1F5F9"/>
<circle cx="1058" cy="144" r="2" fill="#F1F5F9"/>
<circle cx="1110" cy="144" r="2" fill="#F1F5F9"/>
<circle cx="1162" cy="144" r="2" fill="#F1F5F9"/>
<circle cx="1214" cy="144" r="2" fill="#F1F5F9"/>
<circle cx="1266" cy="144" r="2" fill="#F1F5F9"/>
<circle cx="1318" cy="144" r="2" fill="#F1F5F9"/>
<circle cx="1370" cy="144" r="2" fill="#F1F5F9"/>
<circle cx="1422" cy="144" r="2" fill="#F1F5F9"/>
<circle cx="1474" cy="144" r="2" fill="#F1F5F9"/>
<circle cx="1526" cy="144" r="2" fill="#F1F5F9"/>
<circle cx="1578" cy="144" r="2" fill="#F1F5F9"/>
<circle cx="1630" cy="144" r="2" fill="#F1F5F9"/>
<circle cx="1682" cy="144" r="2" fill="#F1F5F9"/>
<circle cx="1734" cy="144" r="2" fill="#F1F5F9"/>
<circle cx="1786" cy="144" r="2" fill="#F1F5F9"/>
<circle cx="18" cy="196" r="2" fill="#F1F5F9"/>
<circle cx="70" cy="196" r="2" fill="#F1F5F9"/>
<circle cx="122" cy="196" r="2" fill="#F1F5F9"/>
<circle cx="174" cy="196" r="2" fill="#F1F5F9"/>
<circle cx="226" cy="196" r="2" fill="#F1F5F9"/>
<circle cx="278" cy="196" r="2" fill="#F1F5F9"/>
<circle cx="330" cy="196" r="2" fill="#F1F5F9"/>
<circle cx="382" cy="196" r="2" fill="#F1F5F9"/>
<circle cx="434" cy="196" r="2" fill="#F1F5F9"/>
<circle cx="486" cy="196" r="2" fill="#F1F5F9"/>
<circle cx="538" cy="196" r="2" fill="#F1F5F9"/>
<circle cx="590" cy="196" r="2" fill="#F1F5F9"/>
<circle cx="642" cy="196" r="2" fill="#F1F5F9"/>
<circle cx="694" cy="196" r="2" fill="#F1F5F9"/>
<circle cx="746" cy="196" r="2" fill="#F1F5F9"/>
<circle cx="798" cy="196" r="2" fill="#F1F5F9"/>
<circle cx="850" cy="196" r="2" fill="#F1F5F9"/>
<circle cx="902" cy="196" r="2" fill="#F1F5F9"/>
<circle cx="954" cy="196" r="2" fill="#F1F5F9"/>
<circle cx="1006" cy="196" r="2" fill="#F1F5F9"/>
<circle cx="1058" cy="196" r="2" fill="#F1F5F9"/>
<circle cx="1110" cy="196" r="2" fill="#F1F5F9"/>
<circle cx="1162" cy="196" r="2" fill="#F1F5F9"/>
<circle cx="1214" cy="196" r="2" fill="#F1F5F9"/>
<circle cx="1266" cy="196" r="2" fill="#F1F5F9"/>
<circle cx="1318" cy="196" r="2" fill="#F1F5F9"/>
<circle cx="1370" cy="196" r="2" fill="#F1F5F9"/>
<circle cx="1422" cy="196" r="2" fill="#F1F5F9"/>
<circle cx="1474" cy="196" r="2" fill="#F1F5F9"/>
<circle cx="1526" cy="196" r="2" fill="#F1F5F9"/>
<circle cx="1578" cy="196" r="2" fill="#F1F5F9"/>
<circle cx="1630" cy="196" r="2" fill="#F1F5F9"/>
<circle cx="1682" cy="196" r="2" fill="#F1F5F9"/>
<circle cx="1734" cy="196" r="2" fill="#F1F5F9"/>
<circle cx="1786" cy="196" r="2" fill="#F1F5F9"/>
<circle cx="18" cy="248" r="2" fill="#F1F5F9"/>
<circle cx="70" cy="248" r="2" fill="#F1F5F9"/>
<circle cx="122" cy="248" r="2" fill="#F1F5F9"/>
<circle cx="174" cy="248" r="2" fill="#F1F5F9"/>
<circle cx="226" cy="248" r="2" fill="#F1F5F9"/>
<circle cx="278" cy="248" r="2" fill="#F1F5F9"/>
<circle cx="330" cy="248" r="2" fill="#F1F5F9"/>
<circle cx="382" cy="248" r="2" fill="#F1F5F9"/>
<circle cx="434" cy="248" r="2" fill="#F1F5F9"/>
<circle cx="486" cy="248" r="2" fill="#F1F5F9"/>
<circle cx="538" cy="248" r="2" fill="#F1F5F9"/>
<circle cx="590" cy="248" r="2" fill="#F1F5F9"/>
<circle cx="642" cy="248" r="2" fill="#F1F5F9"/>
<circle cx="694" cy="248" r="2" fill="#F1F5F9"/>
<circle cx="746" cy="248" r="2" fill="#F1F5F9"/>
<circle cx="798" cy="248" r="2" fill="#F1F5F9"/>
<circle cx="850" cy="248" r="2" fill="#F1F5F9"/>
<circle cx="902" cy="248" r="2" fill="#F1F5F9"/>
<circle cx="954" cy="248" r="2" fill="#F1F5F9"/>
<circle cx="1006" cy="248" r="2" fill="#F1F5F9"/>
<circle cx="1058" cy="248" r="2" fill="#F1F5F9"/>
<circle cx="1110" cy="248" r="2" fill="#F1F5F9"/>
<circle cx="1162" cy="248" r="2" fill="#F1F5F9"/>
<circle cx="1214" cy="248" r="2" fill="#F1F5F9"/>
<circle cx="1266" cy="248" r="2" fill="#F1F5F9"/>
<circle cx="1318" cy="248" r="2" fill="#F1F5F9"/>
<circle cx="1370" cy="248" r="2" fill="#F1F5F9"/>
<circle cx="1422" cy="248" r="2" fill="#F1F5F9"/>
<circle cx="1474" cy="248" r="2" fill="#F1F5F9"/>
<circle cx="1526" cy="248" r="2" fill="#F1F5F9"/>
<circle cx="1578" cy="248" r="2" fill="#F1F5F9"/>
<circle cx="1630" cy="248" r="2" fill="#F1F5F9"/>
<circle cx="1682" cy="248" r="2" fill="#F1F5F9"/>
<circle cx="1734" cy="248" r="2" fill="#F1F5F9"/>
<circle cx="1786" cy="248" r="2" fill="#F1F5F9"/>
<circle cx="18" cy="300" r="2" fill="#F1F5F9"/>
<circle cx="70" cy="300" r="2" fill="#F1F5F9"/>
<circle cx="122" cy="300" r="2" fill="#F1F5F9"/>
<circle cx="174" cy="300" r="2" fill="#F1F5F9"/>
<circle cx="226" cy="300" r="2" fill="#F1F5F9"/>
<circle cx="278" cy="300" r="2" fill="#F1F5F9"/>
<circle cx="330" cy="300" r="2" fill="#F1F5F9"/>
<circle cx="382" cy="300" r="2" fill="#F1F5F9"/>
<circle cx="434" cy="300" r="2" fill="#F1F5F9"/>
<circle cx="486" cy="300" r="2" fill="#F1F5F9"/>
<circle cx="538" cy="300" r="2" fill="#F1F5F9"/>
<circle cx="590" cy="300" r="2" fill="#F1F5F9"/>
<circle cx="642" cy="300" r="2" fill="#F1F5F9"/>
<circle cx="694" cy="300" r="2" fill="#F1F5F9"/>
<circle cx="746" cy="300" r="2" fill="#F1F5F9"/>
<circle cx="798" cy="300" r="2" fill="#F1F5F9"/>
<circle cx="850" cy="300" r="2" fill="#F1F5F9"/>
<circle cx="902" cy="300" r="2" fill="#F1F5F9"/>
<circle cx="954" cy="300" r="2" fill="#F1F5F9"/>
<circle cx="1006" cy="300" r="2" fill="#F1F5F9"/>
<circle cx="1058" cy="300" r="2" fill="#F1F5F9"/>
<circle cx="1110" cy="300" r="2" fill="#F1F5F9"/>
<circle cx="1162" cy="300" r="2" fill="#F1F5F9"/>
<circle cx="1214" cy="300" r="2" fill="#F1F5F9"/>
<circle cx="1266" cy="300" r="2" fill="#F1F5F9"/>
<circle cx="1318" cy="300" r="2" fill="#F1F5F9"/>
<circle cx="1370" cy="300" r="2" fill="#F1F5F9"/>
<circle cx="1422" cy="300" r="2" fill="#F1F5F9"/>
<circle cx="1474" cy="300" r="2" fill="#F1F5F9"/>
<circle cx="1526" cy="300" r="2" fill="#F1F5F9"/>
<circle cx="1578" cy="300" r="2" fill="#F1F5F9"/>
<circle cx="1630" cy="300" r="2" fill="#F1F5F9"/>
<circle cx="1682" cy="300" r="2" fill="#F1F5F9"/>
<circle cx="1734" cy="300" r="2" fill="#F1F5F9"/>
<circle cx="1786" cy="300" r="2" fill="#F1F5F9"/>
<circle cx="18" cy="352" r="2" fill="#F1F5F9"/>
<circle cx="70" cy="352" r="2" fill="#F1F5F9"/>
<circle cx="122" cy="352" r="2" fill="#F1F5F9"/>
<circle cx="174" cy="352" r="2" fill="#F1F5F9"/>
<circle cx="226" cy="352" r="2" fill="#F1F5F9"/>
<circle cx="278" cy="352" r="2" fill="#F1F5F9"/>
<circle cx="330" cy="352" r="2" fill="#F1F5F9"/>
<circle cx="382" cy="352" r="2" fill="#F1F5F9"/>
<circle cx="434" cy="352" r="2" fill="#F1F5F9"/>
<circle cx="486" cy="352" r="2" fill="#F1F5F9"/>
<circle cx="538" cy="352" r="2" fill="#F1F5F9"/>
<circle cx="590" cy="352" r="2" fill="#F1F5F9"/>
<circle cx="642" cy="352" r="2" fill="#F1F5F9"/>
<circle cx="694" cy="352" r="2" fill="#F1F5F9"/>
<circle cx="746" cy="352" r="2" fill="#F1F5F9"/>
<circle cx="798" cy="352" r="2" fill="#F1F5F9"/>
<circle cx="850" cy="352" r="2" fill="#F1F5F9"/>
<circle cx="902" cy="352" r="2" fill="#F1F5F9"/>
<circle cx="954" cy="352" r="2" fill="#F1F5F9"/>
<circle cx="1006" cy="352" r="2" fill="#F1F5F9"/>
<circle cx="1058" cy="352" r="2" fill="#F1F5F9"/>
<circle cx="1110" cy="352" r="2" fill="#F1F5F9"/>
<circle cx="1162" cy="352" r="2" fill="#F1F5F9"/>
<circle cx="1214" cy="352" r="2" fill="#F1F5F9"/>
<circle cx="1266" cy="352" r="2" fill="#F1F5F9"/>
<circle cx="1318" cy="352" r="2" fill="#F1F5F9"/>
<circle cx="1370" cy="352" r="2" fill="#F1F5F9"/>
<circle cx="1422" cy="352" r="2" fill="#F1F5F9"/>
<circle cx="1474" cy="352" r="2" fill="#F1F5F9"/>
<circle cx="1526" cy="352" r="2" fill="#F1F5F9"/>
<circle cx="1578" cy="352" r="2" fill="#F1F5F9"/>
<circle cx="1630" cy="352" r="2" fill="#F1F5F9"/>
<circle cx="1682" cy="352" r="2" fill="#F1F5F9"/>
<circle cx="1734" cy="352" r="2" fill="#F1F5F9"/>
<circle cx="1786" cy="352" r="2" fill="#F1F5F9"/>
<circle cx="18" cy="404" r="2" fill="#F1F5F9"/>
<circle cx="70" cy="404" r="2" fill="#F1F5F9"/>
<circle cx="122" cy="404" r="2" fill="#F1F5F9"/>
<circle cx="174" cy="404" r="2" fill="#F1F5F9"/>
<circle cx="226" cy="404" r="2" fill="#F1F5F9"/>
<circle cx="278" cy="404" r="2" fill="#F1F5F9"/>
<circle cx="330" cy="404" r="2" fill="#F1F5F9"/>
<circle cx="382" cy="404" r="2" fill="#F1F5F9"/>
<circle cx="434" cy="404" r="2" fill="#F1F5F9"/>
<circle cx="486" cy="404" r="2" fill="#F1F5F9"/>
<circle cx="538" cy="404" r="2" fill="#F1F5F9"/>
<circle cx="590" cy="404" r="2" fill="#F1F5F9"/>
<circle cx="642" cy="404" r="2" fill="#F1F5F9"/>
<circle cx="694" cy="404" r="2" fill="#F1F5F9"/>
<circle cx="746" cy="404" r="2" fill="#F1F5F9"/>
<circle cx="798" cy="404" r="2" fill="#F1F5F9"/>
<circle cx="850" cy="404" r="2" fill="#F1F5F9"/>
<circle cx="902" cy="404" r="2" fill="#F1F5F9"/>
<circle cx="954" cy="404" r="2" fill="#F1F5F9"/>
<circle cx="1006" cy="404" r="2" fill="#F1F5F9"/>
<circle cx="1058" cy="404" r="2" fill="#F1F5F9"/>
<circle cx="1110" cy="404" r="2" fill="#F1F5F9"/>
<circle cx="1162" cy="404" r="2" fill="#F1F5F9"/>
<circle cx="1214" cy="404" r="2" fill="#F1F5F9"/>
<circle cx="1266" cy="404" r="2" fill="#F1F5F9"/>
<circle cx="1318" cy="404" r="2" fill="#F1F5F9"/>
<circle cx="1370" cy="404" r="2" fill="#F1F5F9"/>
<circle cx="1422" cy="404" r="2" fill="#F1F5F9"/>
<circle cx="1474" cy="404" r="2" fill="#F1F5F9"/>
<circle cx="1526" cy="404" r="2" fill="#F1F5F9"/>
<circle cx="1578" cy="404" r="2" fill="#F1F5F9"/>
<circle cx="1630" cy="404" r="2" fill="#F1F5F9"/>
<circle cx="1682" cy="404" r="2" fill="#F1F5F9"/>
<circle cx="1734" cy="404" r="2" fill="#F1F5F9"/>
<circle cx="1786" cy="404" r="2" fill="#F1F5F9"/>
<circle cx="18" cy="456" r="2" fill="#F1F5F9"/>
<circle cx="70" cy="456" r="2" fill="#F1F5F9"/>
<circle cx="122" cy="456" r="2" fill="#F1F5F9"/>
<circle cx="174" cy="456" r="2" fill="#F1F5F9"/>
<circle cx="226" cy="456" r="2" fill="#F1F5F9"/>
<circle cx="278" cy="456" r="2" fill="#F1F5F9"/>
<circle cx="330" cy="456" r="2" fill="#F1F5F9"/>
<circle cx="382" cy="456" r="2" fill="#F1F5F9"/>
<circle cx="434" cy="456" r="2" fill="#F1F5F9"/>
<circle cx="486" cy="456" r="2" fill="#F1F5F9"/>
<circle cx="538" cy="456" r="2" fill="#F1F5F9"/>
<circle cx="590" cy="456" r="2" fill="#F1F5F9"/>
<circle cx="642" cy="456" r="2" fill="#F1F5F9"/>
<circle cx="694" cy="456" r="2" fill="#F1F5F9"/>
<circle cx="746" cy="456" r="2" fill="#F1F5F9"/>
<circle cx="798" cy="456" r="2" fill="#F1F5F9"/>
<circle cx="850" cy="456" r="2" fill="#F1F5F9"/>
<circle cx="902" cy="456" r="2" fill="#F1F5F9"/>
<circle cx="954" cy="456" r="2" fill="#F1F5F9"/>
<circle cx="1006" cy="456" r="2" fill="#F1F5F9"/>
<circle cx="1058" cy="456" r="2" fill="#F1F5F9"/>
<circle cx="1110" cy="456" r="2" fill="#F1F5F9"/>
<circle cx="1162" cy="456" r="2" fill="#F1F5F9"/>
<circle cx="1214" cy="456" r="2" fill="#F1F5F9"/>
<circle cx="1266" cy="456" r="2" fill="#F1F5F9"/>
<circle cx="1318" cy="456" r="2" fill="#F1F5F9"/>
<circle cx="1370" cy="456" r="2" fill="#F1F5F9"/>
<circle cx="1422" cy="456" r="2" fill="#F1F5F9"/>
<circle cx="1474" cy="456" r="2" fill="#F1F5F9"/>
<circle cx="1526" cy="456" r="2" fill="#F1F5F9"/>
<circle cx="1578" cy="456" r="2" fill="#F1F5F9"/>
<circle cx="1630" cy="456" r="2" fill="#F1F5F9"/>
<circle cx="1682" cy="456" r="2" fill="#F1F5F9"/>
<circle cx="1734" cy="456" r="2" fill="#F1F5F9"/>
<circle cx="1786" cy="456" r="2" fill="#F1F5F9"/>
<circle cx="18" cy="508" r="2" fill="#F1F5F9"/>
<circle cx="70" cy="508" r="2" fill="#F1F5F9"/>
<circle cx="122" cy="508" r="2" fill="#F1F5F9"/>
<circle cx="174" cy="508" r="2" fill="#F1F5F9"/>
<circle cx="226" cy="508" r="2" fill="#F1F5F9"/>
<circle cx="278" cy="508" r="2" fill="#F1F5F9"/>
<circle cx="330" cy="508" r="2" fill="#F1F5F9"/>
<circle cx="382" cy="508" r="2" fill="#F1F5F9"/>
<circle cx="434" cy="508" r="2" fill="#F1F5F9"/>
<circle cx="486" cy="508" r="2" fill="#F1F5F9"/>
<circle cx="538" cy="508" r="2" fill="#F1F5F9"/>
<circle cx="590" cy="508" r="2" fill="#F1F5F9"/>
<circle cx="642" cy="508" r="2" fill="#F1F5F9"/>
<circle cx="694" cy="508" r="2" fill="#F1F5F9"/>
<circle cx="746" cy="508" r="2" fill="#F1F5F9"/>
<circle cx="798" cy="508" r="2" fill="#F1F5F9"/>
<circle cx="850" cy="508" r="2" fill="#F1F5F9"/>
<circle cx="902" cy="508" r="2" fill="#F1F5F9"/>
<circle cx="954" cy="508" r="2" fill="#F1F5F9"/>
<circle cx="1006" cy="508" r="2" fill="#F1F5F9"/>
<circle cx="1058" cy="508" r="2" fill="#F1F5F9"/>
<circle cx="1110" cy="508" r="2" fill="#F1F5F9"/>
<circle cx="1162" cy="508" r="2" fill="#F1F5F9"/>
<circle cx="1214" cy="508" r="2" fill="#F1F5F9"/>
<circle cx="1266" cy="508" r="2" fill="#F1F5F9"/>
<circle cx="1318" cy="508" r="2" fill="#F1F5F9"/>
<circle cx="1370" cy="508" r="2" fill="#F1F5F9"/>
<circle cx="1422" cy="508" r="2" fill="#F1F5F9"/>
<circle cx="1474" cy="508" r="2" fill="#F1F5F9"/>
<circle cx="1526" cy="508" r="2" fill="#F1F5F9"/>
<circle cx="1578" cy="508" r="2" fill="#F1F5F9"/>
<circle cx="1630" cy="508" r="2" fill="#F1F5F9"/>
<circle cx="1682" cy="508" r="2" fill="#F1F5F9"/>
<circle cx="1734" cy="508" r="2" fill="#F1F5F9"/>
<circle cx="1786" cy="508" r="2" fill="#F1F5F9"/>
<circle cx="18" cy="560" r="2" fill="#F1F5F9"/>
<circle cx="70" cy="560" r="2" fill="#F1F5F9"/>
<circle cx="122" cy="560" r="2" fill="#F1F5F9"/>
<circle cx="174" cy="560" r="2" fill="#F1F5F9"/>
<circle cx="226" cy="560" r="2" fill="#F1F5F9"/>
<circle cx="278" cy="560" r="2" fill="#F1F5F9"/>
<circle cx="330" cy="560" r="2" fill="#F1F5F9"/>
<circle cx="382" cy="560" r="2" fill="#F1F5F9"/>
<circle cx="434" cy="560" r="2" fill="#F1F5F9"/>
<circle cx="486" cy="560" r="2" fill="#F1F5F9"/>
<circle cx="538" cy="560" r="2" fill="#F1F5F9"/>
<circle cx="590" cy="560" r="2" fill="#F1F5F9"/>
<circle cx="642" cy="560" r="2" fill="#F1F5F9"/>
<circle cx="694" cy="560" r="2" fill="#F1F5F9"/>
<circle cx="746" cy="560" r="2" fill="#F1F5F9"/>
<circle cx="798" cy="560" r="2" fill="#F1F5F9"/>
<circle cx="850" cy="560" r="2" fill="#F1F5F9"/>
<circle cx="902" cy="560" r="2" fill="#F1F5F9"/>
<circle cx="954" cy="560" r="2" fill="#F1F5F9"/>
<circle cx="1006" cy="560" r="2" fill="#F1F5F9"/>
<circle cx="1058" cy="560" r="2" fill="#F1F5F9"/>
<circle cx="1110" cy="560" r="2" fill="#F1F5F9"/>
<circle cx="1162" cy="560" r="2" fill="#F1F5F9"/>
<circle cx="1214" cy="560" r="2" fill="#F1F5F9"/>
<circle cx="1266" cy="560" r="2" fill="#F1F5F9"/>
<circle cx="1318" cy="560" r="2" fill="#F1F5F9"/>
<circle cx="1370" cy="560" r="2" fill="#F1F5F9"/>
<circle cx="1422" cy="560" r="2" fill="#F1F5F9"/>
<circle cx="1474" cy="560" r="2" fill="#F1F5F9"/>
<circle cx="1526" cy="560" r="2" fill="#F1F5F9"/>
<circle cx="1578" cy="560" r="2" fill="#F1F5F9"/>
<circle cx="1630" cy="560" r="2" fill="#F1F5F9"/>
<circle cx="1682" cy="560" r="2" fill="#F1F5F9"/>
<circle cx="1734" cy="560" r="2" fill="#F1F5F9"/>
<circle cx="1786" cy="560" r="2" fill="#F1F5F9"/>
</g>
</g>
<defs>
<filter id="filter0_f_945_22379" x="-1080.6" y="-3164" width="3965" height="3964" filterUnits="userSpaceOnUse" color-interpolation-filters="sRGB">
<feFlood flood-opacity="0" result="BackgroundImageFix"/>
<feBlend mode="normal" in="SourceGraphic" in2="BackgroundImageFix" result="shape"/>
<feGaussianBlur stdDeviation="100" result="effect1_foregroundBlur_945_22379"/>
</filter>
<clipPath id="clip0_945_22379">
<path d="M0 0H1804.8V552C1804.8 578.51 1783.31 600 1756.8 600H47.9999C21.4903 600 0 578.51 0 552V0Z" fill="white"/>
</clipPath>
<clipPath id="clip1_945_22379">
<rect width="1804" height="600" fill="white"/>
</clipPath>
</defs>
</svg>